<svg width="717" height="716" viewBox="0 0 717 716" fill="none" xmlns="http://www.w3.org/2000/svg"><g id="Main Component"><g id="Background" clip-path="url(#clip0_1451_39793)"><rect id="Rectangle 71" x="0.482422" width="716" height="716" fill="url(#paint0_linear_1451_39793)"/></g></g><defs><linearGradient id="paint0_linear_1451_39793" x1="0.482422" y1="0" x2="716.482" y2="716" gradientUnits="userSpaceOnUse"><stop stop-color="#E2F5FF"/><stop offset="1" stop-color="white"/></linearGradient><clipPath id="clip0_1451_39793"><rect width="716" height="716" fill="white" transform="translate(0.482422)"/></clipPath></defs><g id="Main Component"><g id="Monkey Body" clip-path="url(#clip0_1451_42815)"><g id="Vector"><path d="M220.482 246C220.482 196.295 222.355 192.313 265.956 168.446C321.28 138.161 404.36 132.429 458.945 137.16C514.954 142.015 531.481 160.863 531.481 194V462C531.481 511.706 490.187 552 440.482 552L346.915 555.275C346.915 560.006 356.009 586.533 369.941 592.003C410.783 600.387 469.9 596.692 497.769 608.771C536.56 625.582 531.007 694.415 539.842 729.755C522.62 746.742 142.055 731.23 132.755 734.933C118.755 740.506 132.755 640.65 156.023 619.497C153.113 614.373 223.88 574.544 222.349 555.167C219.097 514.003 220.482 455.412 220.482 442V246Z" fill="#DB4A4A" id="Vector"/><path d="M550.482 283.003C550.482 248.232 521.019 230.742 486.332 233.147L401.482 238.683L321.632 233.147C286.944 230.742 257.482 258.232 257.482 293.003V318.075C257.482 351.212 284.345 378.075 317.482 378.075H319.941C324.912 378.075 328.941 382.105 328.941 387.075V465C328.941 498.137 355.804 532 388.941 532H443.358C476.495 532 508.358 499.137 508.358 466V379.989C508.358 376.05 510.951 372.631 514.558 371.049C535.708 361.773 550.482 335.65 550.482 311.075V283.003Z" fill="#DB4A4A" id="Vector"/><path d="M110.112 302.983C110.112 343.307 142.801 375.996 183.125 375.996C202.071 375.996 219.332 368.779 232.309 356.945V249.022C219.332 237.187 202.071 229.971 183.125 229.971C142.801 229.971 110.112 262.66 110.112 302.983Z" fill="#DB4A4A" id="Vector"/><path d="M598.148 303.858C613.932 335.787 597.424 376.156 561.276 394.026C544.292 402.423 526.994 404.358 510.729 400.738L467.484 315.284C474.484 300.163 488.132 286.8 505.117 278.403C541.265 260.533 582.364 271.93 598.148 303.858Z" fill="#DB4A4A" id="Vector"/></g><path id="Ellipse 4" d="M531.725 402.273C541.796 401.57 551.437 398.89 561.277 394.026C597.425 376.156 613.933 335.786 598.149 303.858C588.731 284.808 569.946 273.067 548.647 270.49" stroke="black" stroke-width="8" stroke-linecap="round"/><path id="Ellipse 5" d="M555.733 367.726C576.791 357.315 586.408 333.797 577.213 315.196C572.376 305.413 563.298 298.938 552.714 296.513" stroke="black" stroke-width="8" stroke-linecap="round"/><path id="Vector 6" d="M363.109 590.61C363.109 590.61 291.912 547.594 285.488 514.384C316.632 553.4 339.809 553.4 344.516 553.4C349.224 553.4 363.109 590.61 363.109 590.61Z" fill="#993434"/><path id="Vector 8" d="M236.169 686.937C236.169 686.937 289.022 751.17 284.043 784.627C267.637 737.478 245.778 729.775 241.338 728.21C236.898 726.646 236.169 686.937 236.169 686.937Z" fill="#993434"/><path id="Vector" d="M260.94 170.535L262.675 174.139L262.675 174.139L260.94 170.535ZM471.482 137L471.482 141L471.482 137ZM532.317 244.399L534.734 241.212L534.734 241.212L532.317 244.399ZM532.376 361.127L534.688 364.392L534.688 364.391L532.376 361.127ZM260.062 477.497C258.889 475.625 256.42 475.058 254.548 476.231C252.676 477.404 252.109 479.873 253.282 481.745L260.062 477.497ZM193.673 591.339L195.638 594.824L195.638 594.824L193.673 591.339ZM149.598 624.727L146.2 622.618L146.2 622.618L149.598 624.727ZM130.815 774.775L134.813 774.653L134.813 774.653L130.815 774.775ZM126.883 777.091C126.95 779.3 128.794 781.035 131.002 780.968C133.211 780.901 134.946 779.057 134.879 776.849L126.883 777.091ZM221.369 227.155L217.369 227.164L217.369 227.164L221.369 227.155ZM217.482 239C217.482 241.209 219.273 243 221.482 243C223.691 243 225.482 241.209 225.482 239H217.482ZM225.482 367.859C225.482 365.65 223.691 363.859 221.482 363.859C219.273 363.859 217.482 365.65 217.482 367.859H225.482ZM262.675 174.139C346.057 133.988 388.027 141 471.482 141L471.482 133C388.487 133 344.541 125.839 259.204 166.931L262.675 174.139ZM441.482 551H356.008V559H441.482V551ZM527.482 465C527.482 512.496 488.978 551 441.482 551V559C493.397 559 535.482 516.915 535.482 465H527.482ZM471.482 141C502.41 141 527.482 166.072 527.482 197H535.482C535.482 161.653 506.828 133 471.482 133L471.482 141ZM529.9 247.586C535.54 251.863 540.202 259.551 543.471 269.524C546.714 279.417 548.443 291.134 548.534 302.919C548.625 314.707 547.077 326.383 543.897 336.203C540.694 346.093 535.98 353.673 530.064 357.863L534.688 364.391C542.576 358.804 548.035 349.389 551.508 338.668C555.002 327.875 556.63 315.321 556.534 302.857C556.437 290.391 554.614 277.836 551.073 267.033C547.559 256.31 542.206 246.879 534.734 241.212L529.9 247.586ZM356.008 551C331.716 551 307.902 533.276 289.669 514.522C280.666 505.261 273.248 495.984 268.079 489.016C265.497 485.535 263.482 482.639 262.117 480.62C261.435 479.61 260.916 478.821 260.57 478.288C260.396 478.022 260.267 477.82 260.182 477.686C260.139 477.62 260.108 477.57 260.088 477.538C260.078 477.522 260.07 477.511 260.066 477.504C260.064 477.501 260.062 477.498 260.062 477.497C260.061 477.496 260.061 477.496 260.061 477.496C260.061 477.496 260.062 477.497 256.672 479.621C253.282 481.745 253.283 481.746 253.284 481.747C253.285 481.748 253.286 481.75 253.287 481.751C253.289 481.755 253.292 481.759 253.295 481.765C253.302 481.776 253.312 481.792 253.325 481.813C253.351 481.853 253.388 481.912 253.437 481.988C253.533 482.14 253.675 482.361 253.861 482.646C254.232 483.218 254.778 484.048 255.489 485.1C256.911 487.203 258.994 490.196 261.654 493.782C266.968 500.947 274.615 510.515 283.933 520.099C302.342 539.034 328.196 559 356.008 559V551ZM191.709 587.855C183.095 592.712 173.734 598.229 165.587 604.037C157.531 609.779 150.255 616.085 146.2 622.618L152.997 626.837C156.175 621.716 162.351 616.168 170.231 610.551C178.021 604.998 187.08 599.649 195.638 594.824L191.709 587.855ZM146.2 622.618C134.624 641.267 129.313 662.649 127.113 687.618C124.918 712.528 125.798 741.34 126.816 774.896L134.813 774.653C133.79 740.948 132.938 712.659 135.082 688.32C137.222 664.042 142.324 644.031 152.997 626.837L146.2 622.618ZM126.816 774.896L126.883 777.091L134.879 776.849L134.813 774.653L126.816 774.896ZM535.482 242.748V197H527.482V242.748H535.482ZM527.482 362.82V465H535.482V362.82H527.482ZM259.204 166.931C246.867 172.872 236.294 179.525 228.863 189.03C221.344 198.648 217.333 210.8 217.369 227.164L225.369 227.146C225.336 212.203 228.959 201.897 235.166 193.958C241.461 185.906 250.707 179.902 262.675 174.139L259.204 166.931ZM217.369 227.164C217.375 230.041 217.404 231.124 217.431 232.427C217.457 233.693 217.482 235.206 217.482 239H225.482C225.482 235.161 225.456 233.592 225.429 232.262C225.402 230.972 225.375 229.948 225.369 227.146L217.369 227.164ZM225.482 542.712V390.432H217.482V542.712H225.482ZM225.482 390.432V367.859H217.482V390.432H225.482ZM530.064 357.863C528.514 358.961 527.482 360.771 527.482 362.82H535.482C535.482 363.514 535.131 364.077 534.688 364.392L530.064 357.863ZM534.734 241.212C535.159 241.534 535.482 242.086 535.482 242.748H527.482C527.482 244.716 528.434 246.474 529.9 247.586L534.734 241.212ZM195.638 594.824C214.814 584.012 225.482 564.559 225.482 542.712H217.482C217.482 561.841 208.226 578.542 191.709 587.855L195.638 594.824Z" fill="black"/><path id="Ellipse 2" d="M229.983 252.316C231.605 253.817 234.135 253.719 235.636 252.097C237.136 250.476 237.038 247.945 235.416 246.445L229.983 252.316ZM235.416 359.522C237.038 358.021 237.136 355.491 235.636 353.869C234.135 352.248 231.605 352.149 229.983 353.65L235.416 359.522ZM183.125 371.996C145.01 371.996 114.112 341.098 114.112 302.983H106.112C106.112 345.516 140.592 379.996 183.125 379.996V371.996ZM114.112 302.983C114.112 264.868 145.01 233.97 183.125 233.97V225.97C140.592 225.97 106.112 260.45 106.112 302.983H114.112ZM183.125 233.97C201.216 233.97 217.673 240.926 229.983 252.316L235.416 246.445C221.686 233.74 203.309 225.97 183.125 225.97V233.97ZM229.983 353.65C217.673 365.04 201.216 371.996 183.125 371.996V379.996C203.309 379.996 221.686 372.226 235.416 359.522L229.983 353.65Z" fill="black"/><path id="Ellipse 3" d="M181.926 346.739C179.718 346.664 177.867 348.393 177.792 350.601C177.717 352.809 179.446 354.66 181.654 354.734L181.926 346.739ZM131.203 296.356C130.957 298.552 132.538 300.531 134.733 300.776C136.929 301.022 138.908 299.442 139.154 297.246L131.203 296.356ZM154.296 268.508C172.911 252.42 201.044 254.469 217.132 273.085L223.185 267.854C204.208 245.896 171.023 243.478 149.065 262.455L154.296 268.508ZM217.132 273.085C233.22 291.701 231.17 319.833 212.555 335.921L217.786 341.974C239.744 322.997 242.162 289.813 223.185 267.854L217.132 273.085ZM212.555 335.921C203.718 343.558 192.747 347.106 181.926 346.739L181.654 354.734C194.409 355.168 207.366 350.979 217.786 341.974L212.555 335.921ZM139.154 297.246C140.358 286.486 145.459 276.145 154.296 268.508L149.065 262.455C138.645 271.46 132.623 283.673 131.203 296.356L139.154 297.246Z" fill="black"/><path id="Vector 1" d="M347.502 555.267V555.267C347.502 574.413 361.791 590.547 380.797 592.861L482.6 605.253C505.173 608.001 523.049 625.635 526.104 648.168L546.252 796.75" stroke="black" stroke-width="8"/><path id="Vector 3" d="M485.825 689.152C485.396 686.984 483.292 685.575 481.125 686.004C478.958 686.433 477.549 688.538 477.977 690.705L485.825 689.152ZM482.256 747.882C482.256 750.092 484.047 751.882 486.256 751.882C488.465 751.882 490.256 750.092 490.256 747.882H482.256ZM477.977 690.705C483.778 720.014 482.256 728.028 482.256 747.882H490.256C490.256 728.266 491.81 719.39 485.825 689.152L477.977 690.705Z" fill="black"/><path id="Vector 7" d="M237.825 689.152C237.396 686.985 235.292 685.575 233.125 686.004C230.958 686.433 229.549 688.538 229.977 690.705L237.825 689.152ZM234.256 747.883C234.256 750.092 236.047 751.883 238.256 751.883C240.465 751.883 242.256 750.092 242.256 747.883H234.256ZM229.977 690.705C235.778 720.014 234.256 728.028 234.256 747.883H242.256C242.256 728.266 243.81 719.39 237.825 689.152L229.977 690.705Z" fill="black"/><path id="Vector" d="M538.482 291.039C538.482 256.268 509.02 234.778 474.332 237.183C432.652 246.758 389.451 247.687 347.398 239.912L332.633 237.183C297.945 234.778 268.482 262.268 268.482 297.039V338.111C268.482 371.248 270.345 398.111 303.482 398.111H305.942C310.912 398.111 314.942 402.141 314.942 407.111V470.036C314.942 503.174 341.805 530.037 374.942 530.037H452.358C485.495 530.037 512.358 503.174 512.358 470.037V365.185C512.358 362.056 514.227 359.226 516.902 357.602C523.058 353.864 533.545 345.729 535.83 332.705C539.111 314.004 538.482 291.039 538.482 291.039Z" fill="#E46D6D"/><g id="Group 208"><path id="Vector 590" d="M157.223 630.069L134.982 649.506L167.904 632.26C179.055 627.274 190.862 630.61 200.605 641.499C211.098 653.226 223.943 656.152 235.749 649.506L285.993 621.223C288.151 620.008 286.612 616.728 284.299 617.611L266.349 624.462C251.055 630.299 235.21 629.714 220.064 622.752C199.216 613.169 177.198 615.733 157.223 630.069Z" fill="black"/><path id="Vector 603" d="M145.584 683.694L134.165 691.157C133.151 691.82 133.967 693.377 135.089 692.92L153.924 685.251C162.631 681.706 171.852 684.078 179.46 691.822C187.654 700.161 197.684 702.242 206.904 697.516L264.482 668L230.8 679.706C218.856 683.857 206.483 683.441 194.656 678.49C178.376 671.676 161.181 673.499 145.584 683.694Z" fill="black"/><path id="Vector 592" d="M195.677 588.222L188.482 598L201.976 589.634C208.553 586.421 215.517 588.571 221.264 595.588C227.453 603.145 235.029 605.032 241.993 600.749L263.734 587.376C265.835 586.084 264.193 582.878 261.917 583.827L260.041 584.609C251.021 588.37 241.675 587.993 232.742 583.507C220.445 577.331 207.458 578.983 195.677 588.222Z" fill="black"/><path id="Vector 594" d="M223.787 457.77L217.482 465.862L229.307 458.938C235.07 456.279 241.173 458.059 246.209 463.866C251.632 470.12 258.271 471.681 264.373 468.137L281.764 458.035C283.702 456.909 282.274 453.958 280.189 454.78V454.78C272.284 457.893 264.094 457.581 256.266 453.868C245.491 448.757 234.111 450.124 223.787 457.77Z" fill="black"/><path id="Vector 607" d="M222.526 395.28L217.482 403.034L226.942 396.399C231.553 393.851 236.435 395.556 240.464 401.122C244.802 407.115 250.113 408.611 254.995 405.214L269.296 395.263C270.958 394.106 269.479 391.55 267.647 392.414V392.414C261.324 395.397 254.772 395.098 248.51 391.54C239.889 386.642 230.785 387.952 222.526 395.28Z" fill="black"/><path id="Vector 613" d="M228.265 276.28L224.482 284.034L231.577 277.399C235.035 274.851 238.697 276.556 241.718 282.122C244.972 288.115 248.955 289.611 252.617 286.214L263.898 275.748C265.214 274.527 263.625 272.458 262.106 273.414V273.414C257.363 276.397 252.45 276.098 247.753 272.54C241.287 267.642 234.459 268.952 228.265 276.28Z" fill="black"/><path id="Vector 625" d="M228.265 360.28L224.482 368.034L231.577 361.399C235.035 358.851 238.697 360.556 241.718 366.122C244.972 372.115 248.955 373.611 252.617 370.214L263.898 359.748C265.214 358.527 263.625 356.458 262.106 357.414V357.414C257.363 360.397 252.45 360.098 247.753 356.54C241.287 351.642 234.459 352.952 228.265 360.28Z" fill="black"/><path id="Vector 597" opacity="0.2" d="M366.381 220.43L327.603 224.674C326.382 224.807 326.431 226.599 327.657 226.666L368.921 228.924C375.903 229.306 382.793 230.693 389.379 233.042L389.749 233.174C404.869 238.568 421.364 238.722 436.582 233.612C441.752 231.876 447.103 230.737 452.531 230.216L487.832 226.83C489.016 226.716 489.048 225.002 487.87 224.843L458.745 220.932C449.232 219.654 439.567 220.073 430.2 222.17C418.923 224.694 407.237 224.782 395.923 222.428L392.318 221.678C383.791 219.904 375.039 219.483 366.381 220.43Z" fill="black"/><path id="Vector 614" d="M327.533 684.652L286.744 689.452C285.531 689.595 285.583 691.372 286.802 691.444L330.646 694.024C337.885 694.45 345.014 695.989 351.785 698.586L352.192 698.742C367.759 704.714 384.955 704.884 400.637 699.221C405.949 697.303 411.474 696.04 417.092 695.461L454.444 691.607C455.617 691.486 455.651 689.791 454.485 689.623L423.526 685.151C413.688 683.73 403.67 684.195 394.006 686.522C382.374 689.322 370.255 689.419 358.579 686.807L355.36 686.086C346.232 684.043 336.823 683.558 327.533 684.652Z" fill="black"/><path id="Vector 629" opacity="0.2" d="M339.372 664.519L319.165 667.157C317.95 667.316 318.032 669.1 319.256 669.148L342.002 670.034C346.525 670.21 350.997 671.056 355.272 672.545L355.52 672.631C365.341 676.05 376.043 675.966 385.809 672.392C389.122 671.18 392.567 670.361 396.071 669.952L416.055 667.622C417.231 667.485 417.235 665.778 416.059 665.636L399.983 663.694C393.817 662.95 387.567 663.338 381.541 664.841C374.287 666.649 366.723 666.84 359.387 665.399L357.935 665.114C351.82 663.913 345.551 663.712 339.372 664.519Z" fill="black"/><path id="Vector 615" d="M324.782 641.53L295.244 647.998C294.092 648.25 294.249 649.939 295.428 649.974L328.22 650.952C333.74 651.116 339.166 652.415 344.162 654.769L344.592 654.971C356.2 660.439 369.745 659.898 380.879 653.52C384.576 651.403 388.593 649.9 392.772 649.072L420.463 643.582C421.564 643.364 421.525 641.776 420.415 641.612L397.074 638.155C389.646 637.054 382.06 637.931 375.08 640.697C366.693 644.02 357.47 644.603 348.732 642.362L347.031 641.925C339.747 640.057 332.127 639.922 324.782 641.53Z" fill="black"/><path id="Vector 636" opacity="0.2" d="M332.865 621.992L316.557 625.555C315.42 625.803 315.553 627.465 316.715 627.53L334.922 628.549C338.407 628.744 341.805 629.715 344.867 631.391L345.164 631.554C352.311 635.467 361.002 635.277 367.972 631.056C370.266 629.667 372.787 628.692 375.42 628.177L391.926 624.947C392.857 624.765 392.852 623.431 391.92 623.257L378.233 620.696C373.581 619.825 368.777 620.323 364.402 622.129C359.151 624.297 353.308 624.569 347.878 622.898L346.828 622.575C342.301 621.182 337.492 620.982 332.865 621.992Z" fill="black"/><path id="Vector 624" opacity="0.2" d="M261.282 559.583L239.676 563.53C238.531 563.739 238.606 565.404 239.765 565.51L263.507 567.679C267.744 568.066 271.84 569.397 275.496 571.573L275.852 571.786C284.386 576.868 294.984 577.007 303.648 572.15C306.5 570.551 309.611 569.469 312.838 568.952L333.34 565.668C334.428 565.494 334.476 563.946 333.401 563.705L316.584 559.934C310.956 558.672 305.082 559.075 299.679 561.094C293.194 563.518 286.066 563.601 279.525 561.329L278.26 560.889C272.809 558.995 266.959 558.545 261.282 559.583Z" fill="black"/><path id="Vector 630" opacity="0.2" d="M387.408 208.865L378.914 210.021C376.528 210.346 376.645 213.835 379.048 213.998L388.039 214.61C391.825 214.868 395.537 215.788 399.006 217.327L399.248 217.434C407.255 220.987 416.371 221.087 424.454 217.711C427.172 216.576 430.034 215.823 432.959 215.474L442.607 214.323C444.903 214.049 444.98 210.745 442.7 210.364L435.69 209.193C430.988 208.407 426.17 208.663 421.577 209.942L420.225 210.318C414.701 211.857 408.868 211.91 403.316 210.473L399.971 209.607C395.871 208.546 391.604 208.294 387.408 208.865Z" fill="black"/><path id="Vector 621" opacity="0.2" d="M246.193 337.014L246.785 341.41C247.1 343.748 250.494 343.709 250.755 341.365L251.399 335.577C251.729 332.616 252.664 329.755 254.146 327.17L254.273 326.948C257.716 320.944 258.018 313.639 255.082 307.371C254.107 305.29 253.476 303.064 253.214 300.78L252.443 294.054C252.187 291.824 249.015 291.643 248.508 293.83L247.543 297.989C246.628 301.935 246.767 306.053 247.946 309.928C249.363 314.584 249.272 319.569 247.687 324.17L247.378 325.066C246.057 328.902 245.651 332.993 246.193 337.014Z" fill="black"/><path id="Vector 622" opacity="0.2" d="M295.698 444.501L299.448 443.7C301.69 443.22 301.475 439.955 299.19 439.772L294.287 439.382C291.744 439.179 289.284 438.379 287.107 437.047L286.877 436.907C281.778 433.787 275.353 433.814 270.28 436.977C268.621 438.012 266.785 438.729 264.865 439.093L258.558 440.288C256.571 440.665 256.528 443.495 258.503 443.931L262.721 444.863C266.093 445.608 269.612 445.289 272.795 443.952C276.614 442.347 280.892 442.219 284.8 443.592L285.552 443.856C288.81 445 292.321 445.223 295.698 444.501Z" fill="black"/><path id="Vector 623" d="M271.914 489.97L267.55 490.767C265.23 491.191 265.427 494.579 267.781 494.731L273.593 495.104C276.566 495.296 279.467 496.096 282.118 497.456L285.514 499.198C289.686 501.338 294.64 501.311 298.788 499.126C302.714 497.058 307.374 496.917 311.418 498.744L313.559 499.711C314.771 500.258 315.82 498.692 314.852 497.78L311.38 494.509C307.388 490.749 301.627 489.541 296.462 491.38C293.56 492.413 290.407 492.503 287.452 491.637L283.904 490.597C280.011 489.456 275.905 489.242 271.914 489.97Z" fill="black"/><path id="Vector 593" d="M264.884 535.299V535.299C265.863 536.807 264.045 538.56 262.574 537.527L260.857 536.321C256.654 533.994 252.202 535.551 248.529 540.633C244.573 546.105 239.731 547.471 235.28 544.37L222.238 535.282C220.721 534.225 222.072 531.893 223.744 532.682V532.682C229.51 535.406 235.483 535.133 241.193 531.884C249.053 527.412 257.354 528.609 264.884 535.299Z" fill="black"/><path id="Vector 617" opacity="0.2" d="M192.43 648.198V648.198C194.002 649.229 192.979 651.671 191.142 651.273L187.433 650.47C181.421 649.714 175.996 652.62 172.408 658.518C168.545 664.87 162.567 667.728 156.052 666.34L138.096 660.799C137.298 660.553 137.476 659.375 138.311 659.376V659.376C146.448 659.982 154.153 657.757 160.819 652.876C169.994 646.156 181.07 644.517 192.43 648.198Z" fill="black"/><path id="Vector 618" d="M528.623 691.269V691.269C530.091 692.308 529.05 694.61 527.301 694.194L525.26 693.708C520.494 693.101 516.934 696.194 515.4 702.274C513.749 708.821 509.755 711.881 504.473 710.645L488.994 707.025C487.195 706.604 487.587 703.937 489.432 704.053V704.053C495.796 704.451 501.245 701.988 505.349 696.858C510.998 689.796 519.153 687.838 528.623 691.269Z" fill="black"/><path id="Vector 616" opacity="0.2" d="M222.081 506.299V506.299C221.102 507.807 222.92 509.56 224.391 508.527L226.107 507.321C230.311 504.994 234.763 506.551 238.436 511.633C242.392 517.105 247.234 518.471 251.685 515.37L264.727 506.282C266.243 505.225 264.892 502.893 263.221 503.682V503.682C257.455 506.406 251.482 506.133 245.772 502.884C237.912 498.412 229.611 499.609 222.081 506.299Z" fill="black"/><path id="Vector 602" d="M369.142 589.299V589.299C370.275 590.801 368.504 592.763 366.894 591.79L364.466 590.321C359.584 587.994 354.415 589.551 350.149 594.633C345.556 600.105 339.932 601.471 334.763 598.37L319.964 589.489C318.298 588.49 319.567 585.95 321.366 586.682V586.682C328.062 589.406 334.999 589.133 341.63 585.884C350.758 581.412 360.397 582.609 369.142 589.299Z" fill="black"/><path id="Vector 609" d="M210.72 354.965V354.965C212.291 355.84 211.504 358.24 209.721 358.015L207.64 357.753C202.836 357.665 199.631 361.124 198.763 367.334C197.829 374.021 194.189 377.495 188.804 376.837L173.025 374.91C171.19 374.686 171.292 371.993 173.139 371.908V371.908C179.509 371.617 184.66 368.58 188.185 363.036C193.038 355.405 200.934 352.578 210.72 354.965Z" fill="black"/><path id="Vector 610" opacity="0.2" d="M189.884 242.299V242.299C190.863 243.807 189.045 245.56 187.574 244.527L185.857 243.321C181.654 240.994 177.202 242.551 173.529 247.633C169.573 253.105 164.731 254.471 160.28 251.37L147.238 242.282C145.721 241.225 147.072 238.893 148.744 239.682V239.682C154.51 242.406 160.483 242.133 166.193 238.884C174.053 234.412 182.354 235.609 189.884 242.299Z" fill="black"/><path id="Vector 611" d="M575.884 380.299V380.299C576.863 381.807 575.045 383.56 573.574 382.527L571.857 381.321C567.654 378.994 563.202 380.551 559.529 385.633C555.573 391.105 550.731 392.471 546.28 389.37L533.238 380.282C531.721 379.225 533.072 376.893 534.744 377.682V377.682C540.51 380.406 546.483 380.133 552.193 376.884C560.053 372.412 568.354 373.609 575.884 380.299Z" fill="black"/><path id="Vector 633" d="M603.664 336.376V336.376C604.264 337.309 603.137 338.385 602.232 337.743L601.196 337.008C598.62 335.568 595.891 336.532 593.64 339.678C591.216 343.065 588.248 343.911 585.52 341.991L577.513 336.356C576.581 335.7 577.42 334.265 578.449 334.756V334.756C581.983 336.442 585.644 336.273 589.144 334.262C593.961 331.493 599.049 332.234 603.664 336.376Z" fill="black"/><path id="Vector 627" d="M595.884 295.299V295.299C596.863 296.807 595.045 298.56 593.574 297.527L591.857 296.321C587.654 293.994 583.202 295.551 579.529 300.633C575.573 306.105 570.731 307.471 566.28 304.37L553.238 295.282C551.721 294.225 553.072 291.893 554.744 292.682V292.682C560.51 295.406 566.483 295.133 572.193 291.884C580.053 287.412 588.354 288.609 595.884 295.299Z" fill="black"/><path id="Vector 612" opacity="0.2" d="M603.664 315.299V315.299C604.206 316.66 602.435 317.741 601.472 316.637L601.196 316.321C598.62 313.994 595.891 315.551 593.64 320.633C591.216 326.105 588.248 327.471 585.52 324.37L576.793 314.449C575.821 313.343 577.283 311.783 578.449 312.682V312.682C581.983 315.406 585.644 315.133 589.144 311.884C593.961 307.412 599.049 308.609 603.664 315.299Z" fill="black"/><path id="Vector 595" opacity="0.2" d="M219.081 428.701V428.701C218.102 427.193 219.92 425.44 221.391 426.473L223.107 427.679C227.311 430.006 231.763 428.449 235.436 423.367C239.392 417.895 244.234 416.529 248.685 419.63L261.727 428.718C263.243 429.775 261.892 432.107 260.221 431.318V431.318C254.455 428.594 248.482 428.867 242.772 432.116C234.912 436.588 226.611 435.391 219.081 428.701Z" fill="black"/><path id="Vector 600" d="M115.081 328.701V328.701C114.102 327.193 115.92 325.44 117.391 326.473L119.107 327.679C123.311 330.006 127.763 328.449 131.436 323.367C135.392 317.895 140.234 316.529 144.685 319.63L157.727 328.718C159.243 329.775 157.892 332.107 156.221 331.318V331.318C150.455 328.594 144.482 328.867 138.772 332.116C130.912 336.588 122.611 335.391 115.081 328.701Z" fill="black"/><path id="Vector 631" opacity="0.2" d="M132.992 360.365V360.365C131.529 359.321 132.578 357.023 134.325 357.445L136.364 357.938C141.128 358.562 144.699 355.481 146.254 349.407C147.928 342.866 151.933 339.82 157.211 341.074L172.676 344.748C174.475 345.176 174.073 347.841 172.228 347.719V347.719C165.865 347.298 160.408 349.742 156.286 354.858C150.613 361.9 142.451 363.829 132.992 360.365Z" fill="black"/><path id="Vector 632" opacity="0.2" d="M164.258 304.344V304.344C165.378 302.752 163.47 300.788 161.847 301.861L158.859 303.838C153.549 306.688 147.539 305.705 142.215 301.114C136.481 296.169 129.975 295.426 124.414 299.079L108.77 309.354C107.086 310.461 108.527 313.035 110.35 312.179V312.179C117.679 308.734 125.569 308.247 133.398 310.755C144.175 314.207 154.988 311.96 164.258 304.344Z" fill="black"/><path id="Vector 626" opacity="0.2" d="M538.562 352.701V352.701C537.701 351.207 539.537 349.623 540.889 350.693L542.134 351.679C545.863 354.006 549.812 352.449 553.07 347.367C556.579 341.895 560.875 340.529 564.823 343.63L576.63 352.904C578.018 353.995 576.615 356.147 575.057 355.318V355.318C569.942 352.594 564.643 352.867 559.578 356.116C552.605 360.588 545.242 359.391 538.562 352.701Z" fill="black"/><path id="Vector 628" d="M115.861 281.778L115.126 280.651C113.924 278.809 116.145 276.659 117.947 277.919L121.446 280.366C127.277 283.579 133.452 281.429 138.547 274.412C144.034 266.855 150.751 264.968 156.925 269.251L175.833 282.368C177.848 283.767 176.061 286.865 173.841 285.821L172.926 285.391C164.929 281.63 156.643 282.007 148.723 286.493C137.82 292.669 126.306 291.017 115.861 281.778Z" fill="black"/><path id="Vector 591" d="M511.864 632.069L527.482 650.545L505.384 634.26C498.618 629.274 491.454 632.61 485.543 643.499C479.176 655.226 471.383 658.152 464.22 651.506L435.162 624.547C433.382 622.895 435.531 620.095 437.587 621.388L445.653 626.462C454.933 632.299 464.547 631.714 473.736 624.752C486.386 615.169 499.745 617.733 511.864 632.069Z" fill="black"/><path id="Vector 604" opacity="0.2" d="M522.612 664.874L535.482 679L517.272 666.549C511.696 662.736 502.316 657.641 497.444 665.967C492.198 674.933 485.776 677.171 479.873 672.089L466.137 662.18C464.297 660.852 466.03 658.022 468.049 659.057V659.057C475.696 663.52 483.619 663.073 491.191 657.75C501.616 650.423 512.625 653.912 522.612 664.874Z" fill="black"/></g></g></g><defs><clipPath id="clip0_1451_42815"><rect width="716" height="716" fill="white" transform="translate(0.482422)"/></clipPath></defs><g id="Main Component"><g id="Clothing" clip-path="url(#clip0_1451_61115)"><g id="Group 55"><path id="Vector" d="M155.867 617.489C132.599 638.642 125.775 703.68 139.775 698.107C183.575 716.781 418.087 763.42 531.04 693.661C522.204 658.32 533.491 625.921 494.7 609.109C466.831 597.031 410.627 598.379 369.785 589.995C363.919 587.692 358.91 581.655 355.077 575.084C355.077 575.084 360.429 594.015 297.026 595.878C233.623 597.742 209.055 575.084 209.055 575.084C188.311 593.642 153.847 613.931 155.867 617.489Z" fill="#1B2580"/><path id="Vector 58" d="M262.411 616.307C366.966 666.598 351.459 720.45 366.295 762.283C393.564 839.174 438.023 805.015 471.382 726.877C471.701 726.13 471.776 725.245 471.619 724.448C455.531 642.747 541.543 655.983 498.426 625.8C498.235 625.666 498.014 625.536 497.801 625.439C466.912 611.341 412.384 607.564 354.063 603.883C332.247 602.506 285.893 604.563 265.433 603.883C260.536 603.721 257.995 614.183 262.411 616.307Z" fill="#202A85"/><path id="Vector" d="M193.341 592.078L195.306 595.562L195.306 595.562L193.341 592.078ZM149.266 625.465L145.867 623.356L145.867 623.356L149.266 625.465ZM134.481 775.392C134.414 773.184 132.569 771.448 130.361 771.515C128.153 771.582 126.417 773.427 126.484 775.635L134.481 775.392ZM126.551 777.83C126.618 780.038 128.462 781.774 130.67 781.707C132.878 781.64 134.614 779.796 134.547 777.588L126.551 777.83ZM380.465 593.599L379.981 597.57L379.981 597.57L380.465 593.599ZM482.268 605.992L482.751 602.021L482.751 602.021L482.268 605.992ZM525.772 648.907L521.809 649.445L521.812 649.468L521.815 649.492L525.772 648.907ZM351.963 574.652L355.185 572.283L348.304 576.27L351.963 574.652ZM213.2 574.653L216.872 576.241L210.062 572.172L213.2 574.653ZM296.276 595.379L296.243 591.379L296.044 591.38L295.846 591.402L296.276 595.379ZM191.377 588.593C182.763 593.45 173.402 598.968 165.255 604.775C157.199 610.518 149.923 616.823 145.867 623.356L152.664 627.575C155.843 622.455 162.019 616.906 169.899 611.289C177.688 605.736 186.748 600.387 195.306 595.562L191.377 588.593ZM126.484 775.635L126.551 777.83L134.547 777.588L134.481 775.392L126.484 775.635ZM379.981 597.57L481.784 609.962L482.751 602.021L380.948 589.629L379.981 597.57ZM481.784 609.962C502.552 612.491 518.998 628.714 521.809 649.445L529.736 648.37C526.436 624.033 507.13 604.989 482.751 602.021L481.784 609.962ZM348.74 577.022C352.01 581.468 356.77 586.177 362.137 589.965C367.468 593.727 373.721 596.808 379.981 597.57L380.948 589.629C376.488 589.086 371.49 586.773 366.75 583.429C362.047 580.11 357.917 575.998 355.185 572.283L348.74 577.022ZM195.306 595.562C202.241 591.652 211.81 582.861 216.338 577.134L210.062 572.172C206.041 577.258 197.233 585.292 191.377 588.593L195.306 595.562ZM348.304 576.27C349.017 577.881 348.869 578.88 348.511 579.644C348.069 580.589 347.017 581.749 344.966 582.983C340.828 585.473 334.204 587.336 326.772 588.65C319.459 589.942 311.826 590.627 305.986 590.988C303.075 591.167 300.627 591.265 298.912 591.318C298.055 591.345 297.381 591.36 296.925 591.369C296.697 591.373 296.523 591.375 296.408 591.377C296.351 591.378 296.308 591.378 296.28 591.378C296.266 591.379 296.256 591.379 296.25 591.379C296.247 591.379 296.245 591.379 296.244 591.379C296.243 591.379 296.243 591.379 296.243 591.379C296.243 591.379 296.243 591.379 296.276 595.379C296.309 599.379 296.31 599.379 296.311 599.379C296.312 599.379 296.313 599.379 296.315 599.379C296.317 599.379 296.321 599.378 296.326 599.378C296.335 599.378 296.349 599.378 296.366 599.378C296.4 599.378 296.45 599.377 296.515 599.376C296.644 599.374 296.832 599.372 297.075 599.367C297.561 599.358 298.267 599.342 299.159 599.315C300.942 599.259 303.473 599.158 306.479 598.973C312.476 598.602 320.438 597.893 328.164 596.528C335.768 595.184 343.624 593.128 349.091 589.838C351.841 588.183 354.373 585.988 355.755 583.038C357.222 579.907 357.141 576.472 355.621 573.035L348.304 576.27ZM296.276 595.379C295.846 591.402 295.846 591.402 295.846 591.402C295.845 591.402 295.845 591.402 295.844 591.402C295.841 591.402 295.838 591.403 295.833 591.403C295.823 591.404 295.807 591.406 295.785 591.408C295.742 591.413 295.676 591.42 295.589 591.429C295.413 591.447 295.15 591.474 294.805 591.508C294.116 591.575 293.101 591.671 291.81 591.782C289.229 592.004 285.551 592.288 281.177 592.532C272.41 593.021 260.927 593.346 249.91 592.716C238.748 592.078 228.616 590.482 222.211 587.435C219.032 585.922 217.263 584.282 216.476 582.707C215.775 581.306 215.536 579.329 216.872 576.241L209.529 573.065C207.493 577.773 207.322 582.29 209.321 586.286C211.233 590.108 214.796 592.766 218.774 594.659C226.681 598.421 238.161 600.057 249.453 600.703C260.891 601.357 272.705 601.017 281.622 600.519C286.09 600.27 289.85 599.98 292.497 599.752C293.821 599.638 294.867 599.54 295.585 599.469C295.945 599.434 296.222 599.406 296.411 599.387C296.505 599.377 296.578 599.369 296.627 599.364C296.652 599.361 296.671 599.359 296.685 599.358C296.691 599.357 296.696 599.357 296.7 599.356C296.702 599.356 296.704 599.356 296.705 599.356C296.706 599.356 296.707 599.355 296.276 595.379ZM145.867 623.356C133.894 642.646 128.623 664.861 126.565 690.947L134.54 691.577C136.545 666.16 141.624 645.361 152.664 627.575L145.867 623.356ZM521.815 649.492L528.388 693.962L536.302 692.792L529.729 648.322L521.815 649.492Z" fill="black"/><path id="Vector 3" d="M486.14 697.653C485.993 695.448 484.087 693.781 481.882 693.927C479.678 694.074 478.01 695.98 478.157 698.185L486.14 697.653ZM480.554 748.621C480.554 750.83 482.345 752.621 484.554 752.621C486.763 752.621 488.554 750.83 488.554 748.621H480.554ZM478.157 698.185C480.203 728.873 480.554 729.05 480.554 748.621H488.554C488.554 728.72 488.178 728.225 486.14 697.653L478.157 698.185Z" fill="black"/><path id="Vector 7" d="M237.003 689.987C236.627 688.091 234.786 686.858 232.89 687.233C230.994 687.608 229.761 689.45 230.136 691.346L237.003 689.987ZM234.424 748.621C234.424 750.554 235.991 752.121 237.924 752.121C239.857 752.121 241.424 750.554 241.424 748.621H234.424ZM230.136 691.346C235.948 720.714 234.424 728.781 234.424 748.621H241.424C241.424 728.989 242.976 720.167 237.003 689.987L230.136 691.346Z" fill="black"/><path id="Vector 8" d="M234.887 687.543C234.887 687.543 287.74 751.776 282.761 785.233C266.355 738.084 244.496 730.381 240.055 728.816C235.615 727.252 234.887 687.543 234.887 687.543Z" fill="black" fill-opacity="0.5"/></g><path id="Rectangle 70" d="M137.882 667.208C133.026 666.148 128.23 669.225 127.17 674.081L126.946 675.106C124.59 685.897 131.428 696.556 142.22 698.912L223.309 716.615C228.165 717.675 232.961 714.598 234.021 709.742L236.591 697.97C237.651 693.114 234.574 688.318 229.718 687.258L137.882 667.208Z" fill="#1B2580" stroke="black" stroke-width="8"/><path id="Rectangle 78" d="M154.264 682.999C154.551 681.684 155.85 680.851 157.165 681.138L218.648 694.146C221.346 694.735 223.056 697.399 222.467 700.097L222.417 700.326C221.828 703.024 219.163 704.734 216.465 704.145L160.219 692.28C156.012 691.362 153.346 687.206 154.264 682.999Z" fill="#16207B"/><path id="Rectangle 77" d="M534.117 675.16C533.798 672.482 532.884 669.896 531.291 668.019C529.638 666.073 526.75 664.499 523.473 665.813L485.693 680.957C483.377 681.885 482.223 684.021 481.695 685.534C481.105 687.222 480.903 689.178 481.13 691.091L482.413 701.88C482.636 703.75 483.284 705.674 484.525 707.137C485.826 708.669 488.277 710.074 491.113 708.937L529.957 693.367C532.419 692.38 533.693 690.081 534.297 688.353C534.962 686.45 535.195 684.226 534.935 682.044L534.117 675.16Z" fill="#1B2580" stroke="black" stroke-width="8"/><path id="Vector 57" d="M246.902 575.354C232.948 574.376 213.109 571.882 204.247 570.721C199.446 570.092 195.191 573.829 195.191 578.669V583.224C195.191 587.228 198.151 590.646 202.172 591.147C210.385 592.171 231.549 594.719 246.358 595.7C264.83 596.923 289.162 596.753 306.643 596.384C321.916 596.062 337.11 594.802 352.21 593.015L368.155 591.129C372.182 590.652 375.215 587.239 375.215 583.184V578.67C375.215 573.819 370.936 570.089 366.136 570.735C357.638 571.881 339.363 574.299 328.816 575.364C297.101 578.567 278.988 577.602 246.902 575.354Z" fill="#1B2580" stroke="black" stroke-width="8"/></g></g><defs><clipPath id="clip0_1451_61115"><rect width="716" height="716" fill="white" transform="translate(0.482422)"/></clipPath></defs><g id="Main Component"><g id="Ear Accessory"><circle id="Ellipse 266" cx="554.969" cy="368.049" r="2.40845" fill="black"/></g></g><g id="Main Component"><g id="Head"><g id="Group 172"><path id="Vector 7" d="M478.398 102C478.398 102 409.827 144.634 392.482 149.623L517.121 185L536.482 102L478.398 149.623V102Z" fill="#DB4A4A"/><path id="Vector 8" d="M392.482 149.623C407.631 145.265 461.857 112.191 475.344 103.887C476.68 103.064 478.398 104.03 478.398 105.599V145.397C478.398 147.085 480.361 148.014 481.666 146.943L531.929 105.733C533.406 104.522 535.579 105.874 535.145 107.734L517.121 185" stroke="black" stroke-width="8" stroke-linecap="round"/><path id="Vector 7" d="M210.703 170.907C210.703 170.907 255.515 175.565 264.315 173.408L232.237 229.9L194.982 191.5L231.536 198.314L210.703 170.907Z" fill="#DB4A4A"/><path id="Vector 8_2" d="M263.362 169.523C265.508 168.997 267.674 170.31 268.2 172.456C268.726 174.601 267.413 176.767 265.267 177.292L263.362 169.523ZM235.015 227.022C236.605 228.556 236.65 231.088 235.116 232.677C233.582 234.267 231.049 234.312 229.46 232.778L235.015 227.022ZM193.884 192.898L196.662 190.02L193.884 192.898ZM226.044 196.964L226.999 193.08L226.044 196.964ZM215.282 171.359L215.663 167.378L215.282 171.359ZM265.267 177.292C262.949 177.861 259.248 177.999 255.284 177.975C251.164 177.951 246.268 177.741 241.276 177.444C231.286 176.851 220.74 175.9 214.901 175.341L215.663 167.378C221.468 167.934 231.903 168.874 241.751 169.459C246.678 169.752 251.415 169.953 255.331 169.976C259.405 170 262.145 169.821 263.362 169.523L265.267 177.292ZM216.683 172.163L231.298 191.392L224.929 196.232L210.313 177.003L216.683 172.163ZM225.089 200.848L194.795 193.401L196.705 185.633L226.999 193.08L225.089 200.848ZM196.662 190.02L235.015 227.022L229.46 232.778L191.106 195.776L196.662 190.02ZM194.795 193.401C196.78 193.889 198.132 191.438 196.662 190.02L191.106 195.776C186.695 191.52 190.753 184.169 196.705 185.633L194.795 193.401ZM231.298 191.392C234.721 195.895 230.582 202.199 225.089 200.848L226.999 193.08C225.168 192.63 223.788 194.731 224.929 196.232L231.298 191.392ZM214.901 175.341C216.674 175.511 217.706 173.509 216.683 172.163L210.313 177.003C207.171 172.869 210.404 166.874 215.663 167.378L214.901 175.341Z" fill="black"/></g></g></g><g id="Main Component"><g id="Nose"><g id="Group 62"><g id="Group 28"><path id="Vector 35" d="M389.572 369.665C387.711 368.475 385.238 369.02 384.048 370.882C382.859 372.744 383.404 375.217 385.265 376.406L389.572 369.665ZM440.673 376.349C442.503 375.111 442.983 372.624 441.745 370.794C440.508 368.965 438.021 368.485 436.191 369.723L440.673 376.349ZM385.265 376.406L395.432 382.902L399.74 376.16L389.572 369.665L385.265 376.406ZM431.689 382.426L440.673 376.349L436.191 369.723L427.207 375.8L431.689 382.426ZM395.432 382.902C406.53 389.992 420.781 389.805 431.689 382.426L427.207 375.8C418.943 381.39 408.147 381.532 399.74 376.16L395.432 382.902Z" fill="black"/></g><path id="Ellipse 42" d="M426.802 364.396C426.802 368.063 420.684 373.084 413.138 373.084C405.591 373.084 399.474 368.063 399.474 364.396C399.474 360.728 405.591 357.755 413.138 357.755C420.684 357.755 426.802 360.728 426.802 364.396Z" fill="#DB4A4A"/></g></g></g><g id="Main Component"><g id="Eyes"><g id="Eyes_2"><circle id="Ellipse 23" cx="328.142" cy="307.714" r="46.2867" fill="#DB4A4A"/><circle id="Ellipse 28" cx="494.244" cy="307.714" r="46.2867" fill="#DB4A4A"/><circle id="Ellipse 25" r="26.2291" transform="matrix(1 0 0 -1 337.315 302.544)" fill="black"/><circle id="Ellipse 29" r="26.2291" transform="matrix(1 0 0 -1 503.417 302.544)" fill="black"/><ellipse id="Ellipse 27" cx="342.443" cy="291.961" rx="8.89866" ry="10.8445" transform="rotate(-45 342.443 291.961)" fill="white"/><ellipse id="Ellipse 30" cx="510.976" cy="293.775" rx="8.89866" ry="10.8445" transform="rotate(-45 510.976 293.775)" fill="white"/><path id="Vector 31" d="M230.101 247.131L272.845 286.829" stroke="black" stroke-width="8" stroke-linecap="round"/><g id="Group 144"><path id="Vector 436" d="M387.625 317.91L397.318 306.107C405.319 296.365 420.229 296.365 428.23 306.107L437.923 317.91" stroke="black" stroke-width="8" stroke-linecap="round" stroke-linejoin="round"/><g id="Mask Group"><circle id="Ellipse 277" cx="327.656" cy="307.544" r="57.7865" stroke="black" stroke-width="23"/><circle id="Ellipse 276" cx="327.656" cy="307.544" r="54.2865" stroke="url(#paint0_radial_1451_49300)" stroke-width="16"/><circle id="Ellipse 273" cx="327.656" cy="307.544" r="50.2865" stroke="black" stroke-width="8"/><mask id="mask0_1451_49300" style="mask-type:alpha" maskUnits="userSpaceOnUse" x="281" y="261" width="93" height="93"><circle id="Ellipse 275" cx="327.656" cy="307.544" r="46.2865" fill="black"/></mask><g mask="url(#mask0_1451_49300)"><circle id="Ellipse 274" cx="327.657" cy="315.543" r="60.3284" fill="#00255C" fill-opacity="0.5"/><path id="Vector 433" opacity="0.8" d="M340.442 240.158L239.406 341.194" stroke="white" stroke-width="8" stroke-linecap="round" stroke-linejoin="round"/><path id="Vector 434" opacity="0.8" d="M368.364 269.24L267.328 370.276" stroke="white" stroke-width="28" stroke-linecap="round" stroke-linejoin="round"/></g></g><g id="Mask Group_2"><circle id="Ellipse 277_2" cx="495.244" cy="307.544" r="57.7865" stroke="black" stroke-width="23"/><circle id="Ellipse 276_2" cx="495.244" cy="307.544" r="54.2865" stroke="url(#paint1_radial_1451_49300)" stroke-width="16"/><circle id="Ellipse 273_2" cx="495.244" cy="307.544" r="50.2865" stroke="black" stroke-width="8"/><mask id="mask1_1451_49300" style="mask-type:alpha" maskUnits="userSpaceOnUse" x="448" y="261" width="94" height="93"><circle id="Ellipse 275_2" cx="495.244" cy="307.544" r="46.2865" fill="black"/></mask><g mask="url(#mask1_1451_49300)"><circle id="Ellipse 274_2" cx="495.244" cy="315.543" r="60.3284" fill="#00255C" fill-opacity="0.5"/><path id="Vector 433_2" opacity="0.8" d="M508.03 240.158L406.994 341.194" stroke="white" stroke-width="8" stroke-linecap="round" stroke-linejoin="round"/><path id="Vector 434_2" opacity="0.8" d="M535.952 269.24L434.916 370.276" stroke="white" stroke-width="28" stroke-linecap="round" stroke-linejoin="round"/></g></g></g></g></g></g><defs><radialGradient id="paint0_radial_1451_49300" cx="0" cy="0" r="1" gradientUnits="userSpaceOnUse" gradientTransform="translate(327.656 307.544) rotate(90) scale(46.2865)"><stop stop-color="white"/><stop offset="1" stop-color="#FFD53E"/></radialGradient><radialGradient id="paint1_radial_1451_49300" cx="0" cy="0" r="1" gradientUnits="userSpaceOnUse" gradientTransform="translate(495.244 307.544) rotate(90) scale(46.2865)"><stop stop-color="white"/><stop offset="1" stop-color="#FFD53E"/></radialGradient></defs><g id="Main Component"><g id="Mouth"><path id="Vector 33" d="M400.573 452.127C388.125 450.868 379.327 459.192 372.598 465.957C370.605 467.961 372.109 471.803 374.935 471.803L416.483 471.803H455.703C458.565 471.803 459.989 467.94 457.883 466.002C450.532 459.238 441.411 451.023 432.031 452.127C419.578 453.592 412.983 453.383 400.573 452.127Z" fill="#DB4A4A"/><path id="Vector 153" d="M430.394 509.885C440.523 510.806 451.953 506.024 461.003 500.933C463.899 499.304 461.856 493.873 458.542 494.118C449.309 494.799 435.273 495.4 414.483 495.4C397.373 495.4 385.091 494.993 376.37 494.469C372.93 494.262 370.629 500.893 373.7 502.457C382.393 506.884 392.102 510.608 398.936 509.885C411.388 508.568 417.983 508.756 430.394 509.885Z" fill="#DB4A4A"/><path id="Vector 152" d="M358.482 471V471C367.103 472.331 375.813 473 384.535 473H416.482H448.43C457.152 473 465.862 472.331 474.482 471V471" stroke="black" stroke-width="8" stroke-linecap="round"/></g></g></svg>